<svg version="1" xmlns="http://www.w3.org/2000/svg" width="350.667" height="350.667" viewBox="0 0 263.000000 263.000000"><path d="M127.6 4.7c-.1.1-2.8.3-6.1.4-3.3.1-7.6.6-9.5 1-1.9.4-5.1 1-7 1.3-5.2.8-20.6 6-27.5 9.3-7.5 3.6-15.9 8.5-16.3 9.5-.2.4-.8.8-1.4.8-1.6 0-14.9 11.3-21.2 18.1C35.4 48.6 30.2 55.3 27 60 8.1 88.5 2.3 116.6 7.4 154.5c.2 1.1.5 2.7.8 3.5.3.8 1.4 4.4 2.4 8 7.4 26.9 26.2 52.6 49.9 68.5 15.7 10.4 30.4 16.5 48.1 19.9 8.4 1.6 28.8 2.3 34.9 1.2 1.1-.2 2.6.2 3.4.8 1.1.8 1.3.8.7-.2-.5-.8 0-1.2 1.6-1.3 5.3-.2 20.8-4.4 29.8-8.2 13.5-5.6 28.8-15.4 37.9-24.3 1.9-1.9 3.9-3.1 4.5-2.7.6.3.8.3.4-.2-.4-.4 1.2-3.1 3.5-5.9 14.5-17.1 23.5-34.6 28.2-54.8 2.1-9.4 2.6-13.1 3-24.1.6-21.8-3.5-40.6-13.3-60.7-2.6-5.2-4.6-9.9-4.4-10.5.2-.5 0-.7-.4-.3-.3.4-2.9-2.5-5.7-6.5-16.7-23.9-46.2-43.2-75.2-49.3-8.2-1.7-29-3.6-29.9-2.7zm22.8 17.8c35.8 7.8 63.3 28.6 78.4 59 4.8 9.7 8.8 22 9.8 29.9.2 1.5.8 5.1 1.2 8 1.4 8.9.4 24.6-2.2 35.9-9.8 42.3-44.2 75-87.6 83.2-7.3 1.3-30 1.4-37.8.1-5.9-1-18.7-4.8-20.9-6.2-1.3-.8-2.3-1.2-2.3-.9 0 .9-11.9-5.5-19.4-10.4-8.6-5.6-19.8-16.4-26.6-25.6-10-13.4-18.5-34.7-20.6-51-.8-6.3-.8-21.5 0-27.8 3.1-24.4 16.1-49.8 33.8-66.3 15.2-14 38.8-25.6 56.9-27.9 3-.4 5.6-.9 5.8-1.1.7-.6 28.1.3 31.5 1.1z"/><path d="M123.7 31.6c-.1.1-2.8.5-6 .9-3.3.3-9.7 1.7-14.3 3.1C94.8 38 82 43.7 82 45c0 .6 15.6 28.2 22 39 8.5 14.3 13 22.4 13 23.1 0 .5 1.4.2 3.1-.6 5.3-2.8 13.5-2.8 22.5 0 1.9.6 2.8-.4 6.8-7.7 2.5-4.5 5.7-10.1 7-12.3 7.1-12.1 22.7-39.7 23.2-40.8 1-2.7-20.6-11.1-34.6-13.3-4.2-.6-20.7-1.3-21.3-.8zM123.5 113.9c-5.3 2.4-8.3 5.9-9.9 11.2-2.9 9.6 1.4 18.5 10.6 22.3 10 4.2 21.6-1.6 24.5-12.4 2.3-8.3-2.1-17.5-10.1-21.1-5.2-2.4-10-2.4-15.1 0zM32.4 137.5c2.3 30.3 18.1 57.8 42.9 74.7 4.7 3.2 6.1 3.8 6.8 2.7.5-.8 7.3-12.4 15.1-25.9 7.7-13.5 15.5-26.9 17.3-29.9l3.2-5.3-4.3-4c-4.7-4.4-7.2-8.8-8.2-15.1l-.8-4.2H31.9l.5 7zM157.5 131.5c-.2.5-.6 2.7-1 4.9-.8 4.7-4.1 10.2-8.7 14.2l-3.5 3.1 6.9 11.8c3.8 6.6 7.4 12.9 8.1 14.2.7 1.2 5.6 9.9 11 19.2 7.8 13.4 10.2 16.8 11.5 16.4 2.4-.9 15.1-10.6 18.7-14.3 5-5 6-6.3 10.2-12 11.6-15.6 18.4-35.3 18.7-53.5l.1-5h-35.9c-23.1 0-36 .4-36.1 1z"/></svg>